<?xml version="1.0" standalone="no"?>
<!DOCTYPE svg PUBLIC "-//W3C//DTD SVG 20010904//EN"
 "http://www.w3.org/TR/2001/REC-SVG-20010904/DTD/svg10.dtd">
<svg version="1.0" xmlns="http://www.w3.org/2000/svg"
 width="792.000000pt" height="792.000000pt" viewBox="0 0 792.000000 792.000000"
 preserveAspectRatio="xMidYMid meet">
<metadata>
Created by potrace 1.11, written by Peter Selinger 2001-2013
</metadata>
<g transform="translate(0.000000,792.000000) scale(0.100000,-0.100000)"
fill="#000000" stroke="none">
<path d="M3907 7624 c-3 -3 -577 -16 -734 -18 -73 0 -133 -3 -133 -6 0 -3 -73
-6 -163 -6 -165 -2 -702 -13 -702 -14 0 -1 -76 -3 -170 -5 -525 -12 -799 -22
-1090 -41 -56 -3 -128 -15 -165 -27 -36 -11 -67 -21 -70 -22 -37 -11 -59 -17
-71 -19 -96 -19 -284 -160 -392 -294 -20 -26 -23 -61 -4 -64 48 -6 70 -8 132
-12 39 -3 131 -8 205 -11 176 -7 270 -18 316 -35 13 -5 24 -7 24 -5 0 3 10 -1
22 -9 13 -7 102 -40 198 -71 266 -87 331 -118 703 -328 104 -59 193 -107 198
-107 5 0 9 -4 9 -10 0 -5 6 -10 13 -10 24 0 355 -229 409 -283 9 -9 21 -17 26
-17 6 0 12 -3 14 -8 2 -4 28 -28 58 -52 30 -25 64 -54 76 -65 12 -11 48 -42
80 -70 66 -57 261 -249 314 -310 19 -22 57 -70 85 -105 27 -36 60 -76 72 -90
13 -14 23 -28 23 -31 0 -3 9 -17 21 -30 12 -13 35 -44 52 -69 17 -25 33 -47
37 -50 7 -6 101 -139 115 -162 6 -9 69 -104 140 -210 72 -106 132 -197 134
-202 2 -6 12 -19 21 -29 17 -18 18 -17 30 20 21 66 73 188 82 191 4 2 8 9 8
16 0 7 18 28 40 48 46 39 55 75 37 135 -6 21 -11 40 -12 43 -2 9 -36 114 -42
130 -4 8 -7 17 -8 20 -1 3 -5 12 -8 20 -3 8 -24 62 -46 120 -95 253 -222 525
-307 657 -19 29 -34 56 -34 59 0 2 -5 10 -10 17 -6 7 -34 43 -62 82 -66 89
-145 164 -227 219 -67 44 -121 92 -121 107 0 47 137 -38 280 -175 158 -151
277 -326 410 -601 53 -111 168 -386 185 -445 19 -65 91 -239 113 -272 29 -45
44 -47 63 -10 8 15 16 29 19 32 3 3 15 25 28 50 12 25 27 52 32 60 18 31 140
292 140 300 0 5 3 10 8 12 4 2 18 25 32 53 14 27 28 54 33 60 4 5 39 64 79
130 39 66 74 122 77 125 3 3 24 32 45 65 44 68 197 287 206 295 3 3 23 30 45
60 22 30 42 57 45 60 3 3 23 28 45 55 56 70 107 125 116 125 15 0 -3 -34 -80
-149 -42 -62 -80 -121 -86 -130 -5 -9 -13 -18 -16 -21 -9 -8 -163 -241 -194
-295 -16 -27 -34 -58 -40 -67 -78 -130 -289 -528 -280 -528 2 0 -9 -26 -24
-57 -16 -32 -34 -76 -41 -98 -7 -22 -17 -46 -23 -52 -5 -7 -7 -13 -4 -13 4 0
-1 -19 -9 -42 -27 -73 -21 -147 22 -274 38 -114 39 -115 56 -92 9 13 24 31 32
40 8 9 22 30 30 47 9 16 21 35 28 43 7 7 47 63 88 123 41 61 80 116 87 123 7
7 13 17 13 21 0 6 82 122 117 166 5 6 19 26 33 45 28 41 155 203 213 273 129
154 406 436 524 532 47 39 90 75 97 80 71 63 284 201 431 280 166 88 176 94
238 141 60 45 345 194 371 194 8 0 16 5 18 11 2 5 10 11 18 12 8 2 20 5 25 9
29 18 222 94 304 119 144 45 248 57 526 64 302 7 365 21 365 80 0 19 -45 100
-75 135 -112 129 -206 182 -359 205 -21 3 -41 7 -45 9 -3 2 -40 7 -81 11 -41
3 -88 8 -105 10 -16 2 -75 7 -130 10 -55 3 -135 7 -177 10 -75 5 -127 7 -533
20 -622 20 -2447 48 -2458 39z"/>
<path d="M82 5377 c-3 -34 -13 -349 -17 -542 -3 -121 -7 -258 -10 -305 -9
-152 -16 -399 -20 -695 -6 -497 -16 -1731 -21 -2405 l-4 -645 53 -110 c28 -60
55 -111 60 -113 4 -2 7 -8 7 -14 0 -18 66 -110 104 -147 20 -19 36 -32 36 -28
0 4 8 3 18 -2 11 -6 41 -13 68 -17 27 -3 51 -7 54 -9 6 -4 90 -14 245 -30 153
-16 472 -20 735 -10 107 4 274 9 370 11 96 1 178 3 181 3 4 1 -36 45 -88 99
-53 53 -107 113 -122 132 -14 19 -28 37 -31 40 -16 14 -164 260 -165 272 0 3
-3 10 -8 14 -7 7 -36 67 -102 209 -36 77 -118 282 -121 303 -1 8 -6 21 -10 30
-4 9 -8 19 -9 22 0 3 -9 30 -20 60 -10 30 -20 60 -21 65 -1 6 -7 30 -14 55 -7
25 -14 54 -16 65 -1 11 -3 21 -4 23 -2 1 -3 5 -4 10 -13 53 -18 77 -20 95 -2
12 -7 47 -11 77 -4 30 -9 66 -11 80 -10 92 -15 129 -19 155 -3 17 -7 48 -10
70 -4 22 -8 51 -11 65 -3 14 -7 43 -9 65 -2 22 -8 59 -13 82 -10 44 -9 257 2
308 10 49 27 108 40 140 22 50 41 90 46 95 3 3 12 18 20 34 34 67 228 236 270
236 6 0 10 5 10 10 0 6 5 10 10 10 11 0 111 71 145 103 52 49 142 109 220 147
80 38 266 105 324 116 13 3 31 9 40 13 9 5 20 9 24 9 5 0 11 2 13 5 3 3 -23 3
-58 1 -59 -3 -150 -6 -533 -20 -279 -10 -487 -8 -550 5 -225 48 -517 303 -649
567 -34 70 -130 334 -120 334 2 0 0 9 -6 21 -6 11 -13 29 -15 41 -4 17 -31
111 -55 188 -10 32 -34 119 -39 142 -1 4 -8 26 -16 48 -8 22 -15 44 -15 48 -1
9 -38 139 -50 172 -4 14 -20 64 -35 112 -25 83 -40 113 -43 85z"/>
<path d="M7862 5214 c-13 -43 -30 -104 -38 -134 -8 -30 -17 -62 -21 -70 -3 -8
-5 -18 -5 -23 1 -4 -7 -33 -17 -65 -11 -32 -22 -71 -25 -87 -2 -17 -5 -30 -6
-30 -1 0 -3 -7 -5 -15 -14 -52 -28 -100 -64 -220 -23 -74 -43 -142 -45 -151
-2 -8 -12 -33 -21 -55 -9 -21 -18 -48 -21 -59 -7 -39 -74 -163 -116 -216 -74
-93 -180 -203 -259 -267 -18 -15 -44 -37 -57 -49 -14 -13 -28 -23 -33 -23 -4
0 -14 -6 -21 -13 -48 -46 -132 -75 -242 -84 -100 -7 -504 -7 -741 2 -210 7
-410 13 -533 15 -41 1 -76 -1 -79 -4 -4 -3 3 -6 15 -6 18 0 125 -25 317 -75
192 -49 318 -109 445 -211 52 -41 109 -86 125 -100 17 -13 35 -24 42 -24 6 0
13 -3 15 -7 2 -5 39 -35 83 -68 80 -59 170 -144 212 -200 27 -35 80 -142 95
-188 5 -18 11 -51 14 -74 2 -23 4 -46 5 -50 1 -4 1 -10 0 -13 -1 -3 -4 -43 -6
-90 -4 -95 -14 -222 -20 -260 -2 -14 -7 -50 -10 -80 -3 -30 -8 -66 -10 -80 -5
-36 -14 -99 -20 -145 -3 -23 -7 -50 -9 -62 -3 -12 -8 -43 -12 -70 -3 -26 -9
-57 -11 -68 -2 -11 -7 -33 -9 -50 -18 -98 -47 -229 -66 -290 -12 -38 -22 -72
-23 -75 -1 -3 -7 -18 -13 -33 -7 -16 -12 -31 -12 -33 0 -17 -186 -395 -235
-479 -19 -33 -43 -75 -52 -92 -9 -18 -20 -33 -25 -33 -4 0 -8 -5 -8 -11 0 -6
-11 -25 -25 -43 -14 -18 -25 -38 -25 -44 0 -6 -3 -12 -7 -14 -5 -1 -28 -30
-52 -62 -54 -73 -123 -141 -162 -162 -52 -27 -32 -34 141 -50 196 -18 409 -20
960 -11 320 6 393 9 460 23 42 9 109 45 148 79 20 19 50 45 65 58 l29 24 3
572 c2 315 5 575 8 577 3 3 2 18 -3 32 -4 15 -3 37 1 50 6 16 5 21 -3 16 -7
-5 -8 -3 -4 5 7 11 11 117 5 146 -1 6 0 15 1 20 8 37 19 3324 10 3354 -5 19
-10 8 -28 -55z"/>
<path d="M4201 2979 c-21 -23 -33 -73 -36 -153 -2 -47 1 -65 26 -171 13 -57
15 -153 5 -205 -4 -19 -20 -60 -36 -92 -28 -55 -32 -98 -16 -163 18 -71 23
-94 20 -98 -2 -2 -6 -21 -10 -43 -7 -49 -37 -98 -77 -128 -36 -27 -60 -35
-113 -41 -52 -5 -80 9 -98 48 -26 54 -31 109 -26 272 3 68 -9 133 -33 185 -45
98 -53 172 -24 225 13 23 14 26 26 84 5 25 8 49 6 55 -18 70 -43 129 -67 157
-26 32 -29 33 -42 16 -14 -19 -55 -143 -101 -307 -25 -92 -75 -234 -111 -315
-10 -22 -18 -42 -19 -45 -10 -50 -344 -701 -375 -730 -3 -3 -14 -21 -24 -40
-10 -19 -72 -118 -136 -220 -114 -180 -186 -307 -182 -322 1 -5 -2 -8 -7 -8
-5 0 -11 -10 -14 -23 -42 -179 -102 -357 -119 -357 -4 0 -8 -6 -8 -13 0 -21
-65 -94 -134 -152 -89 -74 -115 -101 -83 -90 6 3 93 7 192 10 203 6 340 10
630 20 558 19 999 27 1435 28 383 0 814 -9 828 -16 4 -3 15 -1 26 2 16 6 9 17
-47 75 -36 37 -72 80 -79 97 -7 16 -16 29 -19 29 -9 0 -55 125 -83 225 -14 50
-32 108 -41 130 -31 77 -108 230 -143 285 -20 30 -59 91 -88 135 -61 94 -155
252 -208 348 -20 37 -46 84 -58 105 -28 50 -198 389 -198 395 0 3 -15 38 -33
79 -19 40 -48 111 -66 158 -18 47 -37 94 -42 105 -4 11 -31 97 -59 190 -28 94
-55 179 -59 190 -49 112 -51 115 -80 84z"/>
</g>
</svg>
