<?xml version="1.0" encoding="UTF-8" standalone="no"?>
<svg
   xmlns:dc="http://purl.org/dc/elements/1.1/"
   xmlns:cc="http://creativecommons.org/ns#"
   xmlns:rdf="http://www.w3.org/1999/02/22-rdf-syntax-ns#"
   xmlns:svg="http://www.w3.org/2000/svg"
   xmlns="http://www.w3.org/2000/svg"
   xmlns:sodipodi="http://sodipodi.sourceforge.net/DTD/sodipodi-0.dtd"
   xmlns:inkscape="http://www.inkscape.org/namespaces/inkscape"
   width="796px"
   height="78px"
   viewBox="0 0 796 78"
   version="1.1"
   id="svg7271"
   inkscape:version="0.91 r13725"
   sodipodi:docname="LISA_EISNER_JEWELRY_orange.svg">
  <metadata
     id="metadata7302">
    <rdf:RDF>
      <cc:Work
         rdf:about="">
        <dc:format>image/svg+xml</dc:format>
        <dc:type
           rdf:resource="http://purl.org/dc/dcmitype/StillImage" />
        <dc:title>LISA_EISNER_JEWELRY_02</dc:title>
      </cc:Work>
    </rdf:RDF>
  </metadata>
  <sodipodi:namedview
     pagecolor="#ffffff"
     bordercolor="#666666"
     borderopacity="1"
     objecttolerance="10"
     gridtolerance="10"
     guidetolerance="10"
     inkscape:pageopacity="0"
     inkscape:pageshadow="2"
     inkscape:window-width="2107"
     inkscape:window-height="1223"
     id="namedview7300"
     showgrid="false"
     inkscape:zoom="1.4987437"
     inkscape:cx="366.99058"
     inkscape:cy="39"
     inkscape:window-x="2"
     inkscape:window-y="1"
     inkscape:window-maximized="0"
     inkscape:current-layer="svg7271" />
  <!-- Generator: Sketch 39.1 (31720) - http://www.bohemiancoding.com/sketch -->
  <title
     id="title7273">LISA_EISNER_JEWELRY_02</title>
  <desc
     id="desc7275">Created with Sketch.</desc>
  <defs
     id="defs7277">
    <polygon
       id="path-1"
       points="230.2945 0.238 0.06 0.238 0.06 59.565 460.529 59.565 460.529 0.238 230.2945 0.238" />
    <polygon
       id="path-3"
       points="725.839 77.94 795.196 77.94 795.196 48.908 795.196 19.876 725.839 19.876 725.839 77.94" />
  </defs>
  <g
     style="fill:#000000;fill-opacity:0;fill-rule:evenodd;stroke:none;stroke-width:1"
     id="Clip-2" />
  <path
     inkscape:connector-curvature="0"
     style="fill:#cc4f00;fill-opacity:1;fill-rule:evenodd;stroke:none;stroke-width:1"
     mask="none"
     id="Fill-1"
     d="m 0,58.774 33.335,0 0,-9.493 -22.87,0 0,-45.88 -10.465,0 0,55.373 0,0 z m 47.993,0 10.078,0 0,-38.366 -10.078,0 0,38.366 z M 46.443,6.802 c 0,3.718 2.945,6.566 6.589,6.566 3.643,0 6.589,-2.848 6.589,-6.566 0,-3.717 -2.946,-6.564 -6.589,-6.564 -3.644,0 -6.589,2.847 -6.589,6.564 l 0,0 z m 27.124,47.621 c 4.419,3.322 9.923,5.142 15.117,5.142 7.907,0 14.962,-4.509 14.962,-11.865 0,-13.29 -18.218,-11.312 -18.218,-16.296 0,-1.978 2.326,-3.085 5.117,-3.085 2.713,0 5.272,1.186 7.209,2.61 l 4.729,-7.436 c -2.48,-1.977 -7.829,-3.876 -12.713,-3.876 -7.443,0 -14.42,4.588 -14.42,11.946 0,12.34 18.218,10.282 18.218,16.058 0,1.898 -2.093,3.242 -4.807,3.242 -3.798,0 -7.752,-1.424 -10.31,-3.797 l -4.884,7.357 0,0 z m 72.987,-9.097 c -1.938,2.847 -5.272,4.747 -9.071,4.747 -5.658,0 -9.922,-4.431 -9.922,-10.443 0,-5.536 3.798,-10.52 9.69,-10.52 3.876,0 7.209,1.898 9.303,4.746 l 0,11.47 0,0 z m 0.387,13.448 9.69,0 0,-38.366 -9.69,0 0,5.933 c -0.155,-2.927 -3.875,-6.724 -11.008,-6.724 -10.233,0 -18.45,8.702 -18.45,20.013 0,5.221 1.861,9.968 4.806,13.448 3.334,3.956 8.606,6.487 14.187,6.487 6.744,0 10.465,-3.797 10.465,-6.724 l 0,5.933 0,0 z m 94.575,-45.88 0,-9.493 -32.559,0 0,55.373 33.335,0 0,-9.493 -22.869,0 0,-15.425 16.668,0 0,-9.492 -16.668,0 0,-11.47 22.093,0 0,0 z m 16.953,45.88 10.078,0 0,-38.366 -10.078,0 0,38.366 z m -1.55,-51.972 c 0,3.718 2.947,6.566 6.589,6.566 3.645,0 6.59,-2.848 6.59,-6.566 0,-3.717 -2.945,-6.564 -6.59,-6.564 -3.642,0 -6.589,2.847 -6.589,6.564 l 0,0 z m 27.125,47.621 c 4.418,3.322 9.923,5.142 15.117,5.142 7.907,0 14.962,-4.509 14.962,-11.865 0,-13.29 -18.218,-11.312 -18.218,-16.296 0,-1.978 2.326,-3.085 5.116,-3.085 2.714,0 5.271,1.186 7.21,2.61 l 4.728,-7.436 c -2.48,-1.977 -7.83,-3.876 -12.713,-3.876 -7.442,0 -14.419,4.588 -14.419,11.946 0,12.34 18.218,10.282 18.218,16.058 0,1.898 -2.093,3.242 -4.806,3.242 -3.799,0 -7.753,-1.424 -10.312,-3.797 l -4.883,7.357 0,0 z m 56.521,-34.015 -9.69,0 0,38.366 10.077,0 0,-24.918 c 1.396,-1.977 4.884,-4.746 9.147,-4.746 2.327,0 4.343,0.79 5.66,2.136 1.395,1.424 2.248,3.401 2.248,7.197 l 0,20.331 10.078,0 0,-19.539 c 0,-6.565 -1.395,-10.442 -3.876,-13.448 -3.1,-3.796 -7.83,-6.17 -13.023,-6.17 -6.745,0 -10.621,3.56 -10.621,6.724 l 0,-5.933 0,0 z m 72.683,26.421 c -1.782,1.978 -5.193,4.43 -9.457,4.43 -5.349,0 -9.612,-3.717 -10.155,-9.098 l 26.047,0 c 0.155,-0.868 0.232,-1.897 0.232,-2.926 0,-10.679 -7.364,-19.618 -17.752,-19.618 -11.163,0 -18.295,9.334 -18.295,20.013 0,12.024 8.449,19.935 19.69,19.935 5.815,0 11.784,-2.452 15.427,-6.882 l -5.737,-5.854 0,0 z M 394.101,34.647 c 0.465,-3.481 3.876,-6.723 8.062,-6.723 4.108,0 7.132,3.322 7.442,6.723 l -15.504,0 0,0 z m 63.017,-15.03 c -6.745,0 -10.93,3.56 -10.93,6.724 l 0,-5.933 -9.691,0 0,38.366 10.078,0 0,-24.127 c 1.24,-2.295 4.728,-5.537 9.147,-5.537 1.473,0 2.946,0.158 3.643,0.395 l 1.164,-9.572 c -1.086,-0.158 -1.939,-0.316 -3.411,-0.316 l 0,0 z" />
  <path
     d="m 523.264,5.648 9.943,0 0,35.327 c 0,15.037 -7.275,20.049 -18.108,20.049 -2.748,0 -6.224,-0.486 -8.326,-1.293 l 1.212,-8.004 c 1.617,0.485 3.8,0.97 6.144,0.97 5.659,0 9.135,-2.587 9.135,-12.045 l 0,-35.004"
     id="Fill-4"
     style="fill:#cc4f00;fill-opacity:1;fill-rule:evenodd;stroke:none;stroke-width:1"
     inkscape:connector-curvature="0" />
  <path
     d="m 571.847,36.287 c 0.081,-3.639 -1.536,-9.62 -8.164,-9.62 -6.144,0 -8.731,5.577 -9.135,9.62 l 17.299,0 0,0 z m -17.299,6.952 c 0.242,7.114 5.82,10.186 12.126,10.186 4.607,0 7.922,-0.647 10.913,-1.779 l 1.455,6.871 c -3.395,1.375 -8.084,2.426 -13.743,2.426 -12.772,0 -20.291,-7.842 -20.291,-19.887 0,-10.913 6.629,-21.18 19.241,-21.18 12.772,0 16.976,10.509 16.976,19.159 0,1.859 -0.162,3.315 -0.323,4.204 l -26.354,0 0,0 z"
     id="Fill-5"
     inkscape:connector-curvature="0"
     style="fill:#cc4f00;fill-rule:evenodd;stroke:none;stroke-width:1;fill-opacity:1" />
  <path
     d="m 598.765,20.765 4.123,17.866 c 0.89,4.203 1.779,8.488 2.506,12.773 l 0.162,0 c 0.808,-4.285 2.102,-8.65 3.233,-12.692 l 5.093,-17.947 8.084,0 4.932,17.462 c 1.212,4.607 2.263,8.892 3.152,13.177 l 0.162,0 c 0.647,-4.285 1.536,-8.57 2.587,-13.177 l 4.365,-17.462 9.782,0 -12.369,39.369 -9.215,0 -4.689,-16.006 c -1.213,-4.122 -2.102,-7.841 -2.991,-12.611 l -0.162,0 c -0.808,4.85 -1.859,8.731 -2.991,12.611 l -5.012,16.006 -9.297,0 -11.641,-39.369 10.186,0"
     id="Fill-6"
     inkscape:connector-curvature="0"
     style="fill:#cc4f00;fill-rule:evenodd;stroke:none;stroke-width:1;fill-opacity:1" />
  <path
     d="m 680.411,36.287 c 0.081,-3.639 -1.536,-9.62 -8.164,-9.62 -6.144,0 -8.731,5.577 -9.135,9.62 l 17.299,0 0,0 z m -17.299,6.952 c 0.242,7.114 5.82,10.186 12.125,10.186 4.608,0 7.923,-0.647 10.914,-1.779 l 1.455,6.871 c -3.395,1.375 -8.084,2.426 -13.743,2.426 -12.772,0 -20.291,-7.842 -20.291,-19.887 0,-10.913 6.629,-21.18 19.241,-21.18 12.772,0 16.976,10.509 16.976,19.159 0,1.859 -0.162,3.315 -0.323,4.204 l -26.354,0 0,0 z"
     id="Fill-7"
     inkscape:connector-curvature="0"
     style="fill:#cc4f00;fill-rule:evenodd;stroke:none;stroke-width:1;fill-opacity:1" />
  <polygon
     id="Fill-8"
     points="701.589,60.134 711.613,60.134 711.613,2.738 701.589,2.738 "
     style="fill:#cc4f00;fill-rule:evenodd;stroke:none;stroke-width:1;fill-opacity:1" />
  <g
     style="fill:#000000;fill-rule:evenodd;stroke:none;stroke-width:1"
     id="Clip-10" />
  <path
     d="m 726.162,33.457 c 0,-5.335 -0.081,-9.135 -0.323,-12.692 l 8.65,0 0.323,7.518 0.324,0 c 1.94,-5.578 6.547,-8.407 10.751,-8.407 0.97,0 1.536,0.081 2.345,0.242 l 0,9.378 c -0.809,-0.162 -1.698,-0.323 -2.911,-0.323 -4.769,0 -8.003,3.071 -8.892,7.518 -0.162,0.889 -0.323,1.94 -0.323,3.072 l 0,20.371 -9.944,0 0,-26.677"
     id="Fill-9"
     mask="none"
     inkscape:connector-curvature="0"
     style="fill:#cc4f00;fill-rule:evenodd;stroke:none;stroke-width:1;fill-opacity:1" />
  <path
     d="m 766.74,20.765 7.114,21.099 c 0.808,2.426 1.617,5.417 2.182,7.68 l 0.243,0 c 0.647,-2.263 1.375,-5.173 2.102,-7.76 l 6.144,-21.019 10.671,0 -9.863,26.839 c -5.416,14.713 -9.054,21.261 -13.743,25.303 -3.88,3.477 -7.922,4.77 -10.428,5.093 l -2.263,-8.407 c 1.697,-0.404 3.799,-1.294 5.82,-2.749 1.859,-1.213 4.042,-3.557 5.416,-6.225 0.404,-0.727 0.647,-1.293 0.647,-1.778 0,-0.404 -0.081,-0.97 -0.566,-1.94 l -14.389,-36.136 10.913,0"
     id="Fill-11"
     mask="none"
     inkscape:connector-curvature="0"
     style="fill:#cc4f00;fill-rule:evenodd;stroke:none;stroke-width:1;fill-opacity:1" />
</svg>
