<?xml version="1.0" encoding="UTF-8" standalone="no"?>
<svg width="796px" height="78px" viewBox="0 0 796 78" version="1.1" xmlns="http://www.w3.org/2000/svg" xmlns:xlink="http://www.w3.org/1999/xlink">
    <!-- Generator: Sketch 39.1 (31720) - http://www.bohemiancoding.com/sketch -->
    <title>LISA_EISNER_JEWELRY_02</title>
    <desc>Created with Sketch.</desc>
    <defs>
        <polygon id="path-1" points="230.2945 0.238 0.06 0.238 0.06 59.565 460.529 59.565 460.529 0.238 230.2945 0.238"></polygon>
        <polygon id="path-3" points="725.839 77.94 795.196 77.94 795.196 48.908 795.196 19.876 725.839 19.876 725.839 77.94"></polygon>
    </defs>
    <g id="Page-1" stroke="none" stroke-width="1" fill="none" fill-rule="evenodd">
        <g id="LISA_EISNER_JEWELRY_02">
            <g id="Group-3">
                <mask id="mask-2" fill="white">
                    <use xlink:href="#path-1"></use>
                </mask>
                <g id="Clip-2"></g>
                <path d="M0,58.774 L33.335,58.774 L33.335,49.281 L10.465,49.281 L10.465,3.401 L0,3.401 L0,58.774 L0,58.774 Z M47.993,58.774 L58.071,58.774 L58.071,20.408 L47.993,20.408 L47.993,58.774 Z M46.443,6.802 C46.443,10.52 49.388,13.368 53.032,13.368 C56.675,13.368 59.621,10.52 59.621,6.802 C59.621,3.085 56.675,0.238 53.032,0.238 C49.388,0.238 46.443,3.085 46.443,6.802 L46.443,6.802 Z M73.567,54.423 C77.986,57.745 83.49,59.565 88.684,59.565 C96.591,59.565 103.646,55.056 103.646,47.7 C103.646,34.41 85.428,36.388 85.428,31.404 C85.428,29.426 87.754,28.319 90.545,28.319 C93.258,28.319 95.817,29.505 97.754,30.929 L102.483,23.493 C100.003,21.516 94.654,19.617 89.77,19.617 C82.327,19.617 75.35,24.205 75.35,31.563 C75.35,43.903 93.568,41.845 93.568,47.621 C93.568,49.519 91.475,50.863 88.761,50.863 C84.963,50.863 81.009,49.439 78.451,47.066 L73.567,54.423 L73.567,54.423 Z M146.554,45.326 C144.616,48.173 141.282,50.073 137.483,50.073 C131.825,50.073 127.561,45.642 127.561,39.63 C127.561,34.094 131.359,29.11 137.251,29.11 C141.127,29.11 144.46,31.008 146.554,33.856 L146.554,45.326 L146.554,45.326 Z M146.941,58.774 L156.631,58.774 L156.631,20.408 L146.941,20.408 L146.941,26.341 C146.786,23.414 143.066,19.617 135.933,19.617 C125.7,19.617 117.483,28.319 117.483,39.63 C117.483,44.851 119.344,49.598 122.289,53.078 C125.623,57.034 130.895,59.565 136.476,59.565 C143.22,59.565 146.941,55.768 146.941,52.841 L146.941,58.774 L146.941,58.774 Z M241.516,12.894 L241.516,3.401 L208.957,3.401 L208.957,58.774 L242.292,58.774 L242.292,49.281 L219.423,49.281 L219.423,33.856 L236.091,33.856 L236.091,24.364 L219.423,24.364 L219.423,12.894 L241.516,12.894 L241.516,12.894 Z M258.469,58.774 L268.547,58.774 L268.547,20.408 L258.469,20.408 L258.469,58.774 Z M256.919,6.802 C256.919,10.52 259.866,13.368 263.508,13.368 C267.153,13.368 270.098,10.52 270.098,6.802 C270.098,3.085 267.153,0.238 263.508,0.238 C259.866,0.238 256.919,3.085 256.919,6.802 L256.919,6.802 Z M284.044,54.423 C288.462,57.745 293.967,59.565 299.161,59.565 C307.068,59.565 314.123,55.056 314.123,47.7 C314.123,34.41 295.905,36.388 295.905,31.404 C295.905,29.426 298.231,28.319 301.021,28.319 C303.735,28.319 306.292,29.505 308.231,30.929 L312.959,23.493 C310.479,21.516 305.129,19.617 300.246,19.617 C292.804,19.617 285.827,24.205 285.827,31.563 C285.827,43.903 304.045,41.845 304.045,47.621 C304.045,49.519 301.952,50.863 299.239,50.863 C295.44,50.863 291.486,49.439 288.927,47.066 L284.044,54.423 L284.044,54.423 Z M340.565,20.408 L330.875,20.408 L330.875,58.774 L340.952,58.774 L340.952,33.856 C342.348,31.879 345.836,29.11 350.099,29.11 C352.426,29.11 354.442,29.9 355.759,31.246 C357.154,32.67 358.007,34.647 358.007,38.443 L358.007,58.774 L368.085,58.774 L368.085,39.235 C368.085,32.67 366.69,28.793 364.209,25.787 C361.109,21.991 356.379,19.617 351.186,19.617 C344.441,19.617 340.565,23.177 340.565,26.341 L340.565,20.408 L340.565,20.408 Z M413.248,46.829 C411.466,48.807 408.055,51.259 403.791,51.259 C398.442,51.259 394.179,47.542 393.636,42.161 L419.683,42.161 C419.838,41.293 419.915,40.264 419.915,39.235 C419.915,28.556 412.551,19.617 402.163,19.617 C391,19.617 383.868,28.951 383.868,39.63 C383.868,51.654 392.317,59.565 403.558,59.565 C409.373,59.565 415.342,57.113 418.985,52.683 L413.248,46.829 L413.248,46.829 Z M394.101,34.647 C394.566,31.166 397.977,27.924 402.163,27.924 C406.271,27.924 409.295,31.246 409.605,34.647 L394.101,34.647 L394.101,34.647 Z M457.118,19.617 C450.373,19.617 446.188,23.177 446.188,26.341 L446.188,20.408 L436.497,20.408 L436.497,58.774 L446.575,58.774 L446.575,34.647 C447.815,32.352 451.303,29.11 455.722,29.11 C457.195,29.11 458.668,29.268 459.365,29.505 L460.529,19.933 C459.443,19.775 458.59,19.617 457.118,19.617 L457.118,19.617 Z" id="Fill-1" fill="#FFFFFF" mask="url(#mask-2)"></path>
            </g>
            <path d="M523.264,5.648 L533.207,5.648 L533.207,40.975 C533.207,56.012 525.932,61.024 515.099,61.024 C512.351,61.024 508.875,60.538 506.773,59.731 L507.985,51.727 C509.602,52.212 511.785,52.697 514.129,52.697 C519.788,52.697 523.264,50.11 523.264,40.652 L523.264,5.648" id="Fill-4" fill="#FFFFFF"></path>
            <path d="M571.847,36.287 C571.928,32.648 570.311,26.667 563.683,26.667 C557.539,26.667 554.952,32.244 554.548,36.287 L571.847,36.287 L571.847,36.287 Z M554.548,43.239 C554.79,50.353 560.368,53.425 566.674,53.425 C571.281,53.425 574.596,52.778 577.587,51.646 L579.042,58.517 C575.647,59.892 570.958,60.943 565.299,60.943 C552.527,60.943 545.008,53.101 545.008,41.056 C545.008,30.143 551.637,19.876 564.249,19.876 C577.021,19.876 581.225,30.385 581.225,39.035 C581.225,40.894 581.063,42.35 580.902,43.239 L554.548,43.239 L554.548,43.239 Z" id="Fill-5" fill="#FFFFFF"></path>
            <path d="M598.765,20.765 L602.888,38.631 C603.778,42.834 604.667,47.119 605.394,51.404 L605.556,51.404 C606.364,47.119 607.658,42.754 608.789,38.712 L613.882,20.765 L621.966,20.765 L626.898,38.227 C628.11,42.834 629.161,47.119 630.05,51.404 L630.212,51.404 C630.859,47.119 631.748,42.834 632.799,38.227 L637.164,20.765 L646.946,20.765 L634.577,60.134 L625.362,60.134 L620.673,44.128 C619.46,40.006 618.571,36.287 617.682,31.517 L617.52,31.517 C616.712,36.367 615.661,40.248 614.529,44.128 L609.517,60.134 L600.22,60.134 L588.579,20.765 L598.765,20.765" id="Fill-6" fill="#FFFFFF"></path>
            <path d="M680.411,36.287 C680.492,32.648 678.875,26.667 672.247,26.667 C666.103,26.667 663.516,32.244 663.112,36.287 L680.411,36.287 L680.411,36.287 Z M663.112,43.239 C663.354,50.353 668.932,53.425 675.237,53.425 C679.845,53.425 683.16,52.778 686.151,51.646 L687.606,58.517 C684.211,59.892 679.522,60.943 673.863,60.943 C661.091,60.943 653.572,53.101 653.572,41.056 C653.572,30.143 660.201,19.876 672.813,19.876 C685.585,19.876 689.789,30.385 689.789,39.035 C689.789,40.894 689.627,42.35 689.466,43.239 L663.112,43.239 L663.112,43.239 Z" id="Fill-7" fill="#FFFFFF"></path>
            <polygon id="Fill-8" fill="#FFFFFF" points="701.589 60.134 711.613 60.134 711.613 2.738 701.589 2.738"></polygon>
            <mask id="mask-4" fill="white">
                <use xlink:href="#path-3"></use>
            </mask>
            <g id="Clip-10"></g>
            <path d="M726.162,33.457 C726.162,28.122 726.081,24.322 725.839,20.765 L734.489,20.765 L734.812,28.283 L735.136,28.283 C737.076,22.705 741.683,19.876 745.887,19.876 C746.857,19.876 747.423,19.957 748.232,20.118 L748.232,29.496 C747.423,29.334 746.534,29.173 745.321,29.173 C740.552,29.173 737.318,32.244 736.429,36.691 C736.267,37.58 736.106,38.631 736.106,39.763 L736.106,60.134 L726.162,60.134 L726.162,33.457" id="Fill-9" fill="#FFFFFF" mask="url(#mask-4)"></path>
            <path d="M766.74,20.765 L773.854,41.864 C774.662,44.29 775.471,47.281 776.036,49.544 L776.279,49.544 C776.926,47.281 777.654,44.371 778.381,41.784 L784.525,20.765 L795.196,20.765 L785.333,47.604 C779.917,62.317 776.279,68.865 771.59,72.907 C767.71,76.384 763.668,77.677 761.162,78 L758.899,69.593 C760.596,69.189 762.698,68.299 764.719,66.844 C766.578,65.631 768.761,63.287 770.135,60.619 C770.539,59.892 770.782,59.326 770.782,58.841 C770.782,58.437 770.701,57.871 770.216,56.901 L755.827,20.765 L766.74,20.765" id="Fill-11" fill="#FFFFFF" mask="url(#mask-4)"></path>
        </g>
    </g>
</svg>