<?xml version="1.0" encoding="UTF-8" standalone="no"?>
<svg width="198px" height="184px" viewBox="0 0 198 184" version="1.1" xmlns="http://www.w3.org/2000/svg" xmlns:xlink="http://www.w3.org/1999/xlink">
    <!-- Generator: Sketch 39.1 (31720) - http://www.bohemiancoding.com/sketch -->
    <title>path3400</title>
    <desc>Created with Sketch.</desc>
    <defs></defs>
    <g id="Page-1" stroke="none" stroke-width="1" fill="none" fill-rule="evenodd">
        <g id="butterfly_logo" fill="#FFFFFF">
            <g id="Page-1">
                <path d="M16.28097,183.11863 C11.88097,182.70111 7.51415,182.02608 6.57692,181.61855 C5.6397,181.21103 3.8397,178.78032 2.57692,176.21696 L0.28097,171.55632 L0.55039,127.55632 C0.69857,103.35632 1.00734,81.981321 1.23655,80.056321 C1.46577,78.131321 1.68203,71.868821 1.71714,66.139654 C1.75224,60.410488 2.00527,55.947282 2.27941,56.221419 C2.55354,56.495557 4.65569,63.398341 6.95085,71.560939 C10.53645,84.312924 11.70079,87.11671 15.22241,91.479171 C17.47661,94.271601 21.33696,97.59538 23.80096,98.86533 C28.05308,101.05689 29.01857,101.14603 42.78098,100.61764 L57.28098,100.06095 L51.28098,101.85833 C47.98098,102.84689 43.93098,104.91615 42.28098,106.45668 C40.63098,107.99722 38.09708,109.87119 36.65009,110.62107 C29.4693,114.34241 26.06479,122.18398 27.63949,131.3751 C28.22195,134.77477 28.97908,140.18098 29.32201,143.3889 C30.48923,154.30753 38.56003,172.74353 45.03098,179.27262 L48.78098,183.05632 L45.4346,183.05632 C43.59409,183.05632 38.08159,183.24115 33.1846,183.46704 C28.28761,183.69294 20.68097,183.53614 16.28097,183.11863 L16.28097,183.11863 L16.28097,183.11863 Z M157.28098,183.05633 C151.53761,182.69737 149.91505,182.32595 151.52883,181.73962 C155.13347,180.42996 163.56825,166.57934 167.43455,155.62108 C169.7016,149.19555 172.80881,125.64018 171.83655,122.25008 C170.49622,117.57662 167.82395,114.17648 162.87888,110.8525 C160.35003,109.15267 157.14507,106.71628 155.75674,105.43831 C154.23489,104.03744 150.06529,102.32579 145.25674,101.12799 L137.28098,99.14125 L154.78098,99.69087 C166.0869,100.04596 173.25162,99.86375 175.02331,99.17608 C178.91545,97.66537 186.61321,90.305515 188.81486,85.98992 C189.84078,83.978952 192.10179,76.983725 193.83932,70.444972 C195.57685,63.90622 197.13823,58.405129 197.30906,58.220327 C197.47989,58.035526 197.43112,85.035526 197.20069,118.22033 L196.78172,178.55633 L194.22559,180.80633 C191.94726,182.8118 190.56152,183.06469 181.47522,183.1333 C175.86839,183.1756 169.93098,183.28813 168.28098,183.3833 C166.63098,183.4785 161.68098,183.3313 157.28098,183.05633 L157.28098,183.05633 L157.28098,183.05633 Z M62.48389,180.65286 C65.42246,178.18022 66.74297,175.46693 68.1685,168.97255 C68.48043,167.55147 70.67437,163.49763 73.04391,159.96401 C80.38942,149.00994 88.35775,132.93233 90.22525,125.29742 C91.20179,121.30503 92.3491,117.82324 92.77482,117.56013 C93.20054,117.29702 94.07509,118.35218 94.71826,119.90492 C95.61127,122.06085 95.61061,123.33613 94.71526,125.30078 C93.77781,127.35825 93.84293,128.47455 95.04043,130.87501 C95.86399,132.52585 96.3166,135.03369 96.04625,136.44796 C95.77589,137.86224 95.84626,140.18107 96.20261,141.60091 C96.7278,143.69343 97.36047,144.12314 99.54249,143.86939 C102.97373,143.47035 104.99762,139.75686 103.67698,136.2833 C103.13516,134.85822 103.10888,133.33564 103.61488,132.68469 C105.22528,130.61288 105.63977,126.9502 104.60104,123.97049 C103.52596,120.88659 104.19077,116.05633 105.69028,116.05633 C106.16955,116.05633 107.55588,119.76883 108.77101,124.30633 C111.08028,132.9295 119.07283,149.03978 126.39159,159.82346 C128.94724,163.58903 131.1374,168.29081 131.87859,171.60279 C132.63691,174.99132 134.10719,178.11001 135.69484,179.69766 L138.27751,182.28034 L124.77915,181.93742 C117.35505,181.74881 99.58963,181.98162 85.30044,182.45467 L59.3201,183.31484 L62.48369,180.65286 L62.48389,180.65286 L62.48389,180.65286 Z M86.21184,63.019999 C82.39986,57.290633 76.71731,49.860608 73.58394,46.508833 C67.44527,39.942275 55.4434,30.385497 49.78098,27.555141 C47.85598,26.592933 43.80598,24.315003 40.78098,22.493075 C37.75598,20.671147 32.80597,18.437248 29.78097,17.528855 C26.75597,16.620462 23.35865,15.439749 22.23137,14.905047 C21.10409,14.370346 16.71659,13.866579 12.48137,13.785565 C8.24615,13.704545 4.79971,13.394828 4.8226,13.097294 C4.98333,11.008428 11.9834,4.9708657 14.88298,4.4202077 C16.75187,4.0652857 18.73097,3.4365397 19.28097,3.0229937 C19.83097,2.6094487 33.33097,1.9894287 49.28098,1.6451737 C65.23098,1.3009177 84.35598,0.8023648 91.78098,0.537278 C99.20598,0.2721913 122.83098,0.472718 144.28098,0.9828927 C186.72313,1.9923537 190.07205,2.4360007 194.30027,7.609196 C198.62304,12.898071 197.88925,13.549194 187.53098,13.615807 C180.73516,13.659507 176.80697,14.225877 172.7253,15.75049 C166.40755,18.110344 156.52903,22.952631 155.78098,24.056321 C155.50598,24.462061 152.87702,26.006633 149.93886,27.488704 C138.45826,33.279744 126.01945,45.28249 115.25018,60.961313 L107.41646,72.366306 L106.14711,68.699885 C105.09791,65.669349 105.12412,64.335218 106.29821,61.007478 C108.77762,53.98008 116.02295,40.806106 121.53308,33.306321 C127.36563,25.367707 127.48856,23.258588 121.67631,30.848917 C114.40424,40.345649 108.89276,49.079262 105.62703,56.28096 C103.7867,60.339302 101.87268,63.86149 101.37364,64.108043 C100.8746,64.354596 99.47385,61.631321 98.26084,58.056321 C94.73779,47.673079 90.37437,38.939645 86.02006,33.556321 C82.19688,28.829631 75.78098,23.959536 75.78098,25.784177 C75.78098,26.246688 77.09628,27.402076 78.70388,28.351706 C84.49681,31.773678 90.25764,41.48691 96.06137,57.617875 C98.34334,63.960415 98.43975,64.781796 97.00819,65.684796 C96.13158,66.237748 94.90323,68.208208 94.27853,70.063596 L93.1427,73.43703 L86.21184,63.019999 L86.21184,63.019999 L86.21184,63.019999 Z" id="path3400"></path>
            </g>
        </g>
    </g>
</svg>