<?xml version="1.0" encoding="utf-8"?>
<!-- Generator: Adobe Illustrator 16.0.0, SVG Export Plug-In . SVG Version: 6.00 Build 0)  -->
<!DOCTYPE svg PUBLIC "-//W3C//DTD SVG 1.1//EN" "http://www.w3.org/Graphics/SVG/1.1/DTD/svg11.dtd">
<svg version="1.1" id="Layer_0_xA0_Image_1_" xmlns="http://www.w3.org/2000/svg" xmlns:xlink="http://www.w3.org/1999/xlink"
	 x="0px" y="0px" width="136px" height="320px" viewBox="0 0 136 320" enable-background="new 0 0 136 320" xml:space="preserve">
<path fill-rule="evenodd" clip-rule="evenodd" fill="#FFFFFF" d="M97.898,218.004c7.315-19.92,12.375-40.271,14.08-61.51
	c1.66-20.669-1.273-40.105-12.637-57.845c-3.426-5.348-5.23-11.151-3.662-17.581c1.851-7.583,1.393-15.071,0.176-22.762
	c-0.774-4.89,0.18-10.087,0.645-15.119c0.156-1.681,1.201-3.278,2.156-5.722c-20.64,6.803-40.464,10.092-60.285-1.876
	c0.974,3.192,2.177,5.795,2.484,8.498c0.366,3.21,0.812,6.825-0.267,9.707c-3.476,9.28-4.151,18.407-0.317,27.619
	c3.027,7.271,1.904,13.82-2.367,20.277c-10.371,15.678-13.606,33.132-11.533,51.53c2.801,24.865,11.16,48.127,20.86,71.059
	c5.042,11.921,7.562,24.76,2.263,37.326C41.222,281.224,32.261,300.551,23.592,320c4.666,0,9.334,0,14,0
	c5.689-15.289,11.379-30.579,17.209-46.248c-2.441,15.664-4.825,30.956-7.209,46.248c5.334,0,10.666,0,16,0
	c1.469-15.69,2.938-31.38,4.408-47.07c0.523,0.005,1.047,0.01,1.57,0.015c1.674,15.685,3.348,31.37,5.021,47.056
	c4.334,0,8.666,0,13,0c-1.499-16.013-2.998-32.025-4.496-48.039c0.496-0.068,0.992-0.137,1.488-0.205
	c0.79,5.102,1.332,10.258,2.421,15.295c2.382,11.016,5.041,21.97,7.587,32.949c5,0,10,0,15,0
	c-7.519-20.811-15.09-41.641-18.092-63.689c-0.812-5.963-0.545-12.294,0.504-18.23C93.209,231.25,95.495,224.548,97.898,218.004z
	 M67.574,102.035c-0.533,0.062-1.066,0.125-1.601,0.188c-2.418-7.399-4.836-14.799-7.521-23.015c5.562,0,10.673,0,16.584,0
	C72.442,87.146,70.008,94.591,67.574,102.035z"/>
</svg>
